inDegrees=no
num_controls=7
num_derivatives=13
num_iterations=76
num_multipliers=7
num_parameters=0
num_slacks=7
num_states=26
objective=5.637658
objective_accelerations=0.237932
objective_balance=0.063611
objective_effort=0.358045
objective_height=4.911706
objective_ligament=0.066364
solver_duration=662.985773
status=Solve_Succeeded
success=true
DataType=double
version=3
OpenSimVersion=4.4-2022-07-23-0e9fedc
endheader
time	/jointset/ground_pelvis/pelvis_tilt/value	/jointset/ground_pelvis/pelvis_tx/value	/jointset/ground_pelvis/pelvis_ty/value	/jointset/hip_r/hip_flexion_r/value	/jointset/hip_r/hip_adduction_r/value	/jointset/hip_r/hip_rotation_r/value	/jointset/back/lumbar_extension/value	/jointset/patellofemoral_r/patellar_flexion_r/value	/jointset/knee_r/knee_flexion_r/value	/jointset/knee_r/knee_adduction_r/value	/jointset/knee_r/knee_rotation_r/value	/jointset/ankle_r/ankle_angle_r/value	/jointset/subtalar_r/subtalar_angle_r/value	/jointset/ground_pelvis/pelvis_tilt/speed	/jointset/ground_pelvis/pelvis_tx/speed	/jointset/ground_pelvis/pelvis_ty/speed	/jointset/hip_r/hip_flexion_r/speed	/jointset/hip_r/hip_adduction_r/speed	/jointset/hip_r/hip_rotation_r/speed	/jointset/back/lumbar_extension/speed	/jointset/patellofemoral_r/patellar_flexion_r/speed	/jointset/knee_r/knee_flexion_r/speed	/jointset/knee_r/knee_adduction_r/speed	/jointset/knee_r/knee_rotation_r/speed	/jointset/ankle_r/ankle_angle_r/speed	/jointset/subtalar_r/subtalar_angle_r/speed	/forceset/tau_hip_flexion_r	/forceset/tau_hip_adduction_r	/forceset/tau_hip_rotation_r	/forceset/tau_knee_flexion_r	/forceset/tau_ankle_angle_r	/forceset/tau_subtalar_angle_r	/forceset/tau_lumbar_extension	lambda_cid13_p0	lambda_cid14_p0	lambda_cid14_p1	lambda_cid14_p2	lambda_cid14_p3	lambda_cid14_p4	lambda_cid14_p5	/jointset/ground_pelvis/pelvis_tilt/accel	/jointset/ground_pelvis/pelvis_tx/accel	/jointset/ground_pelvis/pelvis_ty/accel	/jointset/hip_r/hip_flexion_r/accel	/jointset/hip_r/hip_adduction_r/accel	/jointset/hip_r/hip_rotation_r/accel	/jointset/back/lumbar_extension/accel	/jointset/patellofemoral_r/patellar_flexion_r/accel	/jointset/knee_r/knee_flexion_r/accel	/jointset/knee_r/knee_adduction_r/accel	/jointset/knee_r/knee_rotation_r/accel	/jointset/ankle_r/ankle_angle_r/accel	/jointset/subtalar_r/subtalar_angle_r/accel	gamma_cid13_p0	gamma_cid14_p0	gamma_cid14_p1	gamma_cid14_p2	gamma_cid14_p3	gamma_cid14_p4	gamma_cid14_p5
0.5	-0.02270850562477587	0.09360684051569834	0.8961965818224547	0.4767241854846405	-0.2277534796403055	-0.159730146404044	-0.2933205830679151	0.5523724996191297	0.5523724996189026	0.05860343362905561	0.1744192977792254	0.2649306440908227	0.06067836059864542	-0.05556362876888008	-0.01113472277326282	-0.1964402434997251	0.8382626795305975	-0.007442437573173416	0.2068815907664884	-0.6086267282234682	1.310229655922262	1.310229655922549	-0.2449209810823784	0.000112014347540234	0.6073252713972428	0.1673673617036101	-0.02222572574289831	-0.003220346206427099	0.003196065559047191	-0.3035963970364395	0.0203330832309551	-0.02140870318770268	0.09769717362443582	-38.61812276830825	-36.6329143213242	-11.85199323667941	-2.059507644657874	9.691786241701221	-678.7043723789924	48.42066809838393	-0.07874146764212239	0.04161061045379245	-0.2342117505481109	-0.4204711366419227	-0.05425566325311801	-0.4517621842901908	0.880087218190888	-0.8552592939122841	-0.8552592939122806	0.3204673389016329	-0.01095594221302326	-0.4682534869921376	-0.06289304040743822	-8.99167196755845e-08	-6.557847463722408e-08	8.149351276636834e-07	-7.04486285483924e-07	-4.890485735011729e-08	-5.558495865158405e-08	9.253256643231298e-07
0.51	-0.0232683278574934	0.09349765395446362	0.8942208523858722	0.4850847698008648	-0.2278311254595565	-0.1576840291814026	-0.299361594406401	0.565430107124652	0.5654301071247028	0.05617151704032827	0.1744204606310465	0.2709795068593776	0.06234789771719982	-0.05639945006897112	-0.01069530523443879	-0.1986598678617232	0.833727653905494	-0.008081542669107411	0.2023245368534194	-0.5994818094898775	1.301088566873789	1.301088566873947	-0.2414522263402892	0.0001220476603001549	0.6023642622211456	0.1665193870647316	-0.02594255793777041	-0.001435371727292872	0.003625845447490061	-0.3055918003711265	0.01530661921227004	-0.02039403389610045	0.1013717138908295	-38.0932215333461	-38.29360635594088	-11.79401318727333	-1.963761252401559	10.24624078084515	-680.6675465429963	48.29716208107986	-0.08580379047215175	0.04619074446508557	-0.2089820289218179	-0.4890044821744795	-0.06801413310395743	-0.4603970941236102	0.9457536980707029	-0.974008161829563	-0.9740081618486002	0.361656316951501	0.00709750328562439	-0.5224937822281615	-0.09881092874013504	-8.326649851012217e-08	-6.277414368217027e-08	7.423373604707771e-07	-6.826464032943435e-07	-4.347665918288977e-08	-5.102517791560268e-08	8.729669734119651e-07
0.52	-0.02383646856907522	0.09339307825239199	0.8922242978556904	0.4933962066194562	-0.22791501756984	-0.1556840265177507	-0.3053083446581333	0.5783902088493608	0.5783902088496752	0.05377460335394521	0.1744217467231808	0.276976265706314	0.06400834283874199	-0.05722732454022975	-0.01021255094064695	-0.2006052622198267	0.8284331800112359	-0.008691695778596777	0.1976586789679911	-0.5897745108712271	1.290728499764722	1.290728499764753	-0.2379204005946185	0.0001366623836528958	0.5969044870726619	0.165548962301362	-0.0296593901329292	0.0003496027516990159	0.004055625336919097	-0.3075872037059477	0.01028015519350882	-0.01937936460472906	0.1050462541570221	-37.54505860675868	-39.96304690891462	-11.73328691909506	-1.873339573681992	10.80207185432359	-682.7752912025773	48.23096811241776	-0.07715210187599239	0.05027796144781696	-0.179365749769163	-0.572360790472987	-0.0484652659641563	-0.4735229787620028	0.9925631952027244	-1.099054906031133	-1.099054906031111	0.3330815396180457	-0.01003966009449828	-0.5680066814690327	-0.08738306530557069	-7.678166393576445e-08	-5.990282073343414e-08	6.711036547249455e-07	-6.589171950064482e-07	-3.819348648694041e-08	-4.659871905233404e-08	8.192446162618131e-07
0.53	-0.02441283707502855	0.09329353127660128	0.8902096801134646	0.5016509862431844	-0.2280048357910529	-0.1537309732658733	-0.3111553150455529	0.5912407485092046	0.5912407485097267	0.0514133359940726	0.1744230091801377	0.2829159998310115	0.06565850198387374	-0.0580429812076196	-0.009690876286370406	-0.2022703538326067	0.8224005206914498	-0.009268007048183658	0.1929456669188737	-0.5795366813374017	1.279186799970303	1.27918679997004	-0.2343174967607781	0.000112793519439938	0.5909635738198772	0.164460030402341	-0.03324283719868666	0.001977046947109847	0.004488617203600256	-0.309679714237315	0.0055068910153436	-0.01845626170125489	0.1086108583331625	-36.97610016988697	-41.55273914744895	-11.70272256177473	-1.773131084959062	11.32003659840688	-684.8201099566461	48.1371436476829	-0.08326920251031712	0.05400032473739137	-0.1528998628098112	-0.6370584293916136	-0.06168342052744687	-0.4712449211522511	1.05182562325199	-1.21060767649785	-1.210607676541613	0.3762751193096698	0.0008827353297994271	-0.6189610154899239	-0.1230507106865777	-7.064337227464599e-08	-5.696939698084562e-08	6.035819534646388e-07	-6.338423441483483e-07	-3.329064827799158e-08	-4.198182178648716e-08	7.658416532822377e-07
